<?xml version="1.0" encoding="utf-8"?>
<!-- Generator: Adobe Illustrator 19.2.1, SVG Export Plug-In . SVG Version: 6.00 Build 0)  -->
<svg version="1.1" id="Layer_1" xmlns="http://www.w3.org/2000/svg" xmlns:xlink="http://www.w3.org/1999/xlink" x="0px" y="0px"
	 viewBox="0 0 566.8 168.6" style="enable-background:new 0 0 566.8 168.6;" xml:space="preserve">
<style type="text/css">
	.st0{fill:#0C3D80;}
	.st1{fill:#0082C1;}
	.st2{fill:#F7931E;}
	.st3{fill:#8CC63F;}
	.st4{fill:#003B37;}
</style>
<g>
	<path class="st0" d="M0.9,45.5h9.7c3.9,0,6.9,0.5,9,1.4c2.1,0.9,3.7,2.4,5,4.3c1.2,1.9,1.8,4.1,1.8,6.4c0,2.2-0.5,4.2-1.6,6
		c-1.1,1.8-2.6,3.2-4.7,4.4c2.6,0.9,4.5,1.9,5.9,3.1c1.4,1.2,2.4,2.6,3.2,4.2c0.8,1.7,1.1,3.5,1.1,5.4c0,3.9-1.4,7.3-4.3,10
		c-2.9,2.7-6.8,4.1-11.6,4.1H0.9V45.5z M5.7,50.3V66h2.8c3.4,0,5.9-0.3,7.5-1c1.6-0.6,2.9-1.6,3.8-3c0.9-1.4,1.4-2.9,1.4-4.6
		c0-2.3-0.8-4-2.4-5.3c-1.6-1.3-4.1-1.9-7.5-1.9H5.7z M5.7,71v18.9h6.1c3.6,0,6.2-0.4,7.9-1.1c1.7-0.7,3-1.8,4-3.3
		c1-1.5,1.5-3.1,1.5-4.8c0-2.2-0.7-4.1-2.1-5.7c-1.4-1.6-3.4-2.7-5.9-3.3c-1.7-0.4-4.6-0.6-8.7-0.6H5.7z"/>
	<path class="st0" d="M63.5,44.2c7.4,0,13.7,2.5,18.7,7.5c5,5,7.5,11.1,7.5,18.4c0,7.2-2.5,13.3-7.5,18.3c-5,5-11.1,7.5-18.3,7.5
		c-7.3,0-13.4-2.5-18.5-7.5c-5-5-7.5-11-7.5-18.1c0-4.7,1.1-9.1,3.4-13.1c2.3-4,5.4-7.2,9.3-9.5C54.6,45.4,58.9,44.2,63.5,44.2z
		 M63.7,49c-3.6,0-7.1,0.9-10.3,2.8c-3.3,1.9-5.8,4.4-7.6,7.7c-1.8,3.2-2.7,6.8-2.7,10.7c0,5.8,2,10.8,6.1,14.8c4.1,4,8.9,6,14.6,6
		c3.8,0,7.4-0.9,10.6-2.8c3.2-1.8,5.8-4.4,7.6-7.6c1.8-3.2,2.7-6.8,2.7-10.7c0-3.9-0.9-7.4-2.7-10.6c-1.8-3.2-4.4-5.7-7.7-7.6
		C70.9,50,67.4,49,63.7,49z"/>
	<path class="st0" d="M119.6,45.5l22.9,49.2h-5.3l-7.7-16.2h-21.2l-7.7,16.2h-5.5l23.2-49.2H119.6z M119,55.9l-8.4,17.8h16.8
		L119,55.9z"/>
	<path class="st0" d="M150.5,45.5h9.8c5.5,0,9.2,0.2,11.1,0.7c2.9,0.7,5.3,2.1,7.1,4.3c1.8,2.2,2.7,4.9,2.7,8.1c0,2.7-0.6,5-1.9,7.1
		c-1.3,2-3.1,3.6-5.4,4.6c-2.3,1-5.6,1.6-9.7,1.6l17.7,22.8h-6.1l-17.7-22.8h-2.8v22.8h-4.9V45.5z M155.4,50.3V67l8.5,0.1
		c3.3,0,5.7-0.3,7.3-0.9c1.6-0.6,2.8-1.6,3.7-3c0.9-1.4,1.3-2.9,1.3-4.6c0-1.6-0.4-3.1-1.3-4.5c-0.9-1.3-2.1-2.3-3.5-2.9
		c-1.5-0.6-3.9-0.9-7.2-0.9H155.4z"/>
	<path class="st0" d="M191.7,94.7V45.5h10.2c7.4,0,12.7,0.6,16,1.8c4.8,1.7,8.5,4.6,11.2,8.7c2.7,4.1,4,9,4,14.7
		c0,4.9-1.1,9.3-3.2,13c-2.1,3.7-4.9,6.5-8.3,8.3c-3.4,1.8-8.2,2.7-14.3,2.7H191.7z M196.5,90h5.7c6.8,0,11.5-0.4,14.1-1.3
		c3.7-1.2,6.6-3.4,8.7-6.5c2.1-3.1,3.2-7,3.2-11.5c0-4.7-1.1-8.8-3.4-12.2c-2.3-3.4-5.5-5.7-9.6-6.9c-3.1-0.9-8.1-1.4-15.2-1.4h-3.5
		V90z"/>
	<path class="st1" d="M333.7,45.5h5.6l17,38l17.2-38h5.6l-22.3,49.2h-1.1L333.7,45.5z"/>
	<path class="st1" d="M386.8,45.5h5.1v49.2h-5.1V45.5z"/>
	<path class="st1" d="M398.6,50.3v-4.8h28v4.8h-11.4v44.4H410V50.3H398.6z"/>
	<path class="st1" d="M454.9,45.5l23.8,49.2h-5.5l-8-16.2h-22l-8,16.2h-5.7l24.2-49.2H454.9z M454.2,55.9l-8.8,17.8H463L454.2,55.9z
		"/>
	<path class="st1" d="M486.7,45.5h5.1v44.4h19.7v4.7h-24.8V45.5z"/>
	<path class="st1" d="M514.3,85.5l4.3-2.5c3.1,5.4,6.6,8.1,10.6,8.1c1.7,0,3.3-0.4,4.8-1.1c1.5-0.8,2.7-1.8,3.4-3.1
		c0.8-1.3,1.2-2.7,1.2-4.1c0-1.7-0.6-3.3-1.7-4.8c-1.6-2.2-4.5-4.8-8.8-7.9c-4.3-3.1-6.9-5.3-8-6.7c-1.8-2.3-2.7-4.8-2.7-7.5
		c0-2.1,0.5-4.1,1.6-5.8c1.1-1.8,2.6-3.1,4.5-4.2c1.9-1,4-1.5,6.3-1.5c2.4,0,4.7,0.6,6.8,1.7c2.1,1.1,4.3,3.3,6.7,6.3l-4.2,3
		c-1.9-2.5-3.6-4.1-4.9-4.8c-1.4-0.8-2.8-1.2-4.4-1.2c-2.1,0-3.7,0.6-5.1,1.8c-1.3,1.2-2,2.7-2,4.5c0,1.1,0.2,2.1,0.7,3.1
		c0.5,1,1.3,2.1,2.5,3.3c0.7,0.6,2.9,2.3,6.6,4.9c4.4,3.1,7.5,5.9,9.1,8.4c1.6,2.4,2.5,4.9,2.5,7.4c0,3.6-1.4,6.7-4.2,9.3
		c-2.8,2.6-6.2,3.9-10.3,3.9c-3.1,0-5.9-0.8-8.4-2.4C518.7,91.9,516.4,89.2,514.3,85.5z"/>
</g>
<path class="st0" d="M309,110.4v8.9c66,1.2,143.4,9.5,230.5,30.9C539.5,150.2,437.7,114.3,309,110.4z"/>
<path class="st0" d="M247.3,109.6v8.9c-66,1.2-143.4,9.5-230.5,30.9C16.8,149.4,118.7,113.5,247.3,109.6z"/>
<g>
	<path d="M551.6,53.3v-7.2h-2.7v-1h6.5v1h-2.7v7.2H551.6z"/>
	<path d="M556.5,53.3v-8.2h1.6l1.9,5.8c0.2,0.5,0.3,0.9,0.4,1.2c0.1-0.3,0.2-0.7,0.4-1.3l2-5.7h1.5v8.2h-1v-6.9l-2.4,6.9h-1l-2.4-7
		v7H556.5z"/>
</g>
<g>
	<path class="st2" d="M335.3,22.7c-0.1-0.9-1.8-1.7-2.8-2.1c0.1-0.5-0.2-1-0.8-1.3l-1.7-0.7c-0.7-0.3-1.5,0-1.8,0.6
		c-0.3,0.6,0,1.3,0.7,1.6l1.7,0.7c0.4,0.2,0.9,0.1,1.3-0.1c1,0.4,1.9,1.1,1.9,1.1c0.6,2.2-5,11-7.3,14.4l-1-0.4
		c0,0-7.2,13.5-16.4,11.6c0,0-10.7-2.6-1.8-18.7l-0.8-0.4c1.6-3.6,6-13.2,8.4-14.2c0,0,1.1,0.1,2.1,0.5c0,0.4,0.3,0.8,0.8,1l1.7,0.7
		c0.7,0.3,1.5,0,1.8-0.6c0.3-0.6,0-1.3-0.7-1.6l-1.7-0.7c-0.6-0.2-1.2-0.1-1.6,0.3c-1-0.4-2.8-1-3.6-0.5c0,0-4.4,4.1-8.4,14.6
		l-0.9-0.4c0,0-10,13.9,0.5,21.1c-12.7,5-71,31-43,54.6c21.6,18.2,26.8,36.2,28.2,45.8c-2.4,1.4-4.1,4-4.1,7c0,4.5,3.6,8.1,8.1,8.1
		c4.5,0,8.1-3.6,8.1-8.1c0-4.5-3.6-8.1-8.1-8.1c-0.1,0-0.1,0-0.1,0c-1.2-10.2-6.4-28.2-29.5-47.8c0,0-27.9-19.7,43.9-49.6
		c2.7,0.3,12.3,0.5,20-13.3l-0.8-0.4C334.4,28.1,335.3,22.7,335.3,22.7z M298.6,156.9c0,2.2-1.8,4-4,4c-2.2,0-4-1.8-4-4
		c0-2.2,1.8-4,4-4C296.8,153,298.6,154.7,298.6,156.9z"/>
</g>
<g>
	<path class="st3" d="M293.9,6.9c-0.6-1-2.9-1.2-4.2-1.2c-0.2-0.6-0.8-1.1-1.6-1.1l-2.3-0.1c-0.9,0-1.7,0.6-1.7,1.4
		c0,0.8,0.7,1.4,1.6,1.5l2.3,0.1c0.6,0,1.1-0.2,1.4-0.6c1.4,0,2.7,0.5,2.7,0.5c1.9,2.2,0.3,14.3-0.4,19l-1.8-0.4
		c0,0,0.4,16.9-12,18.8c0,0-12.3,2.3-11-19.1l-1.7-0.3c-0.2-4.6-0.4-17,1.7-19.1c0,0,1.3-0.3,2.6-0.2c0.3,0.4,0.8,0.8,1.4,0.8
		l2.3,0.1c0.9,0,1.7-0.6,1.7-1.4c0-0.8-0.7-1.4-1.6-1.5l-2.3-0.1c-0.7,0-1.4,0.4-1.6,0.9c-1.3-0.1-3.6,0-4.3,0.9
		c0,0-2.7,6.3-1.6,19.6l-0.7,0c0,0-3.6,20.2,12.6,23.7l-0.9,100c-3.2,1.1-5.5,4.1-5.5,7.6c0,4.5,3.6,8.1,8.1,8.1
		c4.5,0,8.1-3.6,8.1-8.1c0-3.5-2.2-6.4-5.3-7.6l-0.3-100.8c2.9-0.6,13-3.1,14.3-21.7l-0.8,0C295.8,13.4,293.9,6.9,293.9,6.9z
		 M281.5,156.9c0,2.2-1.8,4-4,4c-2.2,0-4-1.8-4-4c0-2,1.5-3.7,3.5-3.9h0.9C280,153.2,281.5,154.9,281.5,156.9z"/>
</g>
<g>
	<path class="st4" d="M249.9,47.9c2.4-2.1,6.6-7.5,0.4-20.3l-1,0.3c-3.6-10.4-7.7-14.7-7.7-14.7c-0.8-0.5-2.7,0-3.7,0.4
		c-0.4-0.4-1-0.6-1.6-0.3l-1.7,0.6c-0.7,0.3-1,1-0.7,1.5c0.3,0.6,1.1,0.9,1.8,0.6l1.7-0.6c0.4-0.2,0.7-0.5,0.8-0.9
		c1-0.4,2.2-0.5,2.2-0.5c2.3,1.1,6.2,10.6,7.7,14.3l-1,0.3c0,0,7.7,13.5-0.7,18.7c0,0-11.1,4-17.9-11.9l-0.7,0.2
		c-2.1-3.4-7.5-12.6-6.7-14.8c0,0,0.9-0.6,1.9-1c0.4,0.2,0.9,0.3,1.4,0.1l1.7-0.6c0.7-0.3,1-1,0.7-1.5c-0.3-0.6-1.1-0.9-1.8-0.6
		l-1.7,0.6c-0.6,0.2-0.9,0.7-0.8,1.2c-1,0.4-2.7,1.1-2.8,1.9c0,0,0.7,5.5,7,15.1l-0.8,0.5c0,0,6.9,16,20.7,13.3
		c74.9,31.5,42.4,50.7,42.4,50.7c-22.2,19.2-27.9,37.8-29.2,47.9c-4.3,0.2-7.8,3.7-7.8,8.1c0,4.5,3.6,8.1,8.1,8.1
		c4.5,0,8.1-3.6,8.1-8.1c0-3.3-2-6.1-4.8-7.4c1.5-9.5,7.4-28.1,29.4-46.7C320.6,79.1,263,53.2,249.9,47.9z M260.4,161
		c-2.2,0-4-1.8-4-4c0-2.2,1.8-4,4-4c2.2,0,4,1.8,4,4C264.4,159.2,262.6,161,260.4,161z"/>
</g>
</svg>
